<svg width="197" height="197" viewBox="0 0 197 197" fill="none" xmlns="http://www.w3.org/2000/svg">
<circle cx="98.5" cy="98.5" r="96" stroke="#9A4844" stroke-width="5"/>
<path d="M156 109.273C156.001 115.696 153.752 121.915 149.644 126.846C145.536 131.776 139.83 135.105 133.523 136.251C127.216 137.397 120.707 136.287 115.133 133.115C109.559 129.943 105.273 124.911 103.024 118.896C103.003 136.934 104.158 148.935 121.241 158H74.7319C91.8142 148.938 92.9693 136.939 92.9483 118.896C91.0689 123.911 87.7636 128.264 83.4414 131.417C79.1191 134.57 73.9694 136.384 68.6291 136.635C63.2888 136.886 57.9921 135.563 53.3941 132.83C48.7962 130.097 45.0985 126.073 42.7586 121.257C40.4186 116.44 39.5389 111.042 40.2283 105.73C40.9177 100.418 43.146 95.4249 46.6374 91.3682C50.1289 87.3115 54.7306 84.3693 59.8732 82.9053C65.0159 81.4413 70.474 81.5198 75.5726 83.1311C72.7029 79.0231 71.0127 74.2051 70.686 69.2014C70.3593 64.1977 71.4086 59.2001 73.7197 54.7525C76.0308 50.3049 79.5152 46.5777 83.7937 43.9766C88.0721 41.3754 92.9806 40 97.985 40C102.989 40 107.898 41.3754 112.176 43.9766C116.455 46.5777 119.939 50.3049 122.25 54.7525C124.561 59.2001 125.611 64.1977 125.284 69.2014C124.957 74.2051 123.267 79.0231 120.397 83.1311C124.497 81.8358 128.843 81.526 133.083 82.2268C137.324 82.9276 141.341 84.6194 144.808 87.165C148.275 89.7107 151.095 93.0387 153.039 96.8795C154.984 100.72 155.998 104.966 156 109.273V109.273Z" fill="#845D34"/>
</svg>
