<svg width="2314" height="680" viewBox="0 0 2314 680" fill="none" xmlns="http://www.w3.org/2000/svg">
<path d="M2148.26 61.54C2144.94 61.54 2141.94 61.12 2139.26 60.28C2136.58 59.4 2134.26 58.14 2132.3 56.5L2134.04 52.54C2136.08 54.1 2138.22 55.26 2140.46 56.02C2142.7 56.78 2145.3 57.16 2148.26 57.16C2151.86 57.16 2154.52 56.5 2156.24 55.18C2158 53.82 2158.88 52.04 2158.88 49.84C2158.88 48.08 2158.24 46.68 2156.96 45.64C2155.72 44.6 2153.62 43.78 2150.66 43.18L2144.42 41.92C2140.66 41.12 2137.84 39.82 2135.96 38.02C2134.12 36.18 2133.2 33.74 2133.2 30.7C2133.2 28.18 2133.84 25.98 2135.12 24.1C2136.44 22.22 2138.26 20.76 2140.58 19.72C2142.9 18.68 2145.58 18.16 2148.62 18.16C2151.46 18.16 2154.1 18.62 2156.54 19.54C2158.98 20.42 2161.04 21.7 2162.72 23.38L2160.98 27.22C2159.18 25.58 2157.28 24.4 2155.28 23.68C2153.28 22.92 2151.04 22.54 2148.56 22.54C2145.4 22.54 2142.88 23.28 2141 24.76C2139.12 26.2 2138.18 28.12 2138.18 30.52C2138.18 32.44 2138.76 33.96 2139.92 35.08C2141.12 36.2 2143.06 37.02 2145.74 37.54L2151.98 38.86C2156.02 39.7 2159 40.98 2160.92 42.7C2162.88 44.38 2163.86 46.68 2163.86 49.6C2163.86 51.96 2163.22 54.04 2161.94 55.84C2160.7 57.64 2158.9 59.04 2156.54 60.04C2154.22 61.04 2151.46 61.54 2148.26 61.54ZM2189.26 61.54C2185.34 61.54 2181.92 60.66 2179 58.9C2176.12 57.1 2173.88 54.58 2172.28 51.34C2170.72 48.1 2169.94 44.26 2169.94 39.82C2169.94 35.38 2170.72 31.54 2172.28 28.3C2173.84 25.06 2176.06 22.56 2178.94 20.8C2181.86 19.04 2185.3 18.16 2189.26 18.16C2193.26 18.16 2196.7 19.04 2199.58 20.8C2202.5 22.56 2204.74 25.06 2206.3 28.3C2207.9 31.5 2208.7 35.32 2208.7 39.76C2208.7 44.2 2207.9 48.06 2206.3 51.34C2204.7 54.58 2202.44 57.1 2199.52 58.9C2196.64 60.66 2193.22 61.54 2189.26 61.54ZM2189.26 57.16C2193.78 57.16 2197.28 55.64 2199.76 52.6C2202.24 49.56 2203.48 45.3 2203.48 39.82C2203.48 34.34 2202.24 30.1 2199.76 27.1C2197.28 24.06 2193.78 22.54 2189.26 22.54C2184.82 22.54 2181.36 24.06 2178.88 27.1C2176.4 30.1 2175.16 34.34 2175.16 39.82C2175.16 45.26 2176.4 49.52 2178.88 52.6C2181.36 55.64 2184.82 57.16 2189.26 57.16ZM2235.79 61.54C2231.63 61.54 2228.07 60.66 2225.11 58.9C2222.15 57.14 2219.87 54.64 2218.27 51.4C2216.71 48.16 2215.93 44.3 2215.93 39.82C2215.93 35.38 2216.71 31.54 2218.27 28.3C2219.87 25.06 2222.15 22.56 2225.11 20.8C2228.07 19.04 2231.63 18.16 2235.79 18.16C2238.71 18.16 2241.39 18.62 2243.83 19.54C2246.31 20.46 2248.41 21.8 2250.13 23.56L2248.21 27.58C2246.37 25.86 2244.45 24.62 2242.45 23.86C2240.49 23.06 2238.31 22.66 2235.91 22.66C2231.15 22.66 2227.51 24.16 2224.99 27.16C2222.47 30.16 2221.21 34.38 2221.21 39.82C2221.21 45.3 2222.47 49.54 2224.99 52.54C2227.51 55.54 2231.15 57.04 2235.91 57.04C2238.31 57.04 2240.49 56.66 2242.45 55.9C2244.45 55.1 2246.37 53.84 2248.21 52.12L2250.13 56.14C2248.41 57.86 2246.31 59.2 2243.83 60.16C2241.39 61.08 2238.71 61.54 2235.79 61.54ZM2257.86 61V18.7H2262.78V37.42H2288.16V18.7H2293.08V61H2288.16V41.68H2262.78V61H2257.86ZM2303.51 61V18.7H2308.43V61H2303.51Z" fill="black"/>
<path d="M18.9332 626.54C15.6132 626.54 12.6132 626.12 9.9332 625.28C7.2532 624.4 4.9332 623.14 2.9732 621.5L4.7132 617.54C6.7532 619.1 8.8932 620.26 11.1332 621.02C13.3732 621.78 15.9732 622.16 18.9332 622.16C22.5332 622.16 25.1932 621.5 26.9132 620.18C28.6732 618.82 29.5532 617.04 29.5532 614.84C29.5532 613.08 28.9132 611.68 27.6332 610.64C26.3932 609.6 24.2932 608.78 21.3332 608.18L15.0932 606.92C11.3332 606.12 8.5132 604.82 6.6332 603.02C4.7932 601.18 3.8732 598.74 3.8732 595.7C3.8732 593.18 4.5132 590.98 5.7932 589.1C7.1132 587.22 8.9332 585.76 11.2532 584.72C13.5732 583.68 16.2532 583.16 19.2932 583.16C22.1332 583.16 24.7732 583.62 27.2132 584.54C29.6532 585.42 31.7132 586.7 33.3932 588.38L31.6532 592.22C29.8532 590.58 27.9532 589.4 25.9532 588.68C23.9532 587.92 21.7132 587.54 19.2332 587.54C16.0732 587.54 13.5532 588.28 11.6732 589.76C9.7932 591.2 8.8532 593.12 8.8532 595.52C8.8532 597.44 9.4332 598.96 10.5932 600.08C11.7932 601.2 13.7332 602.02 16.4132 602.54L22.6532 603.86C26.6932 604.7 29.6732 605.98 31.5932 607.7C33.5532 609.38 34.5332 611.68 34.5332 614.6C34.5332 616.96 33.8932 619.04 32.6132 620.84C31.3732 622.64 29.5732 624.04 27.2132 625.04C24.8932 626.04 22.1332 626.54 18.9332 626.54ZM37.9701 626L56.6301 583.7H60.8301L79.4901 626H74.3901L69.7101 615.2H47.6901L43.0701 626H37.9701ZM58.6701 589.46L49.4901 611.06H67.9701L58.7901 589.46H58.6701ZM85.761 626V583.7H90.681V626H85.761ZM101.113 626V583.7H104.953L130.453 617.72V583.7H135.013V626H131.293L105.733 591.86V626H101.113ZM155.907 626V587.96H140.547V583.7H176.247V587.96H160.887V626H155.907ZM177.966 612.02V608H194.766V612.02H177.966ZM204.296 626V583.7H221.036C225.596 583.7 229.076 584.8 231.476 587C233.916 589.2 235.136 592.34 235.136 596.42C235.136 600.46 233.916 603.6 231.476 605.84C229.076 608.04 225.596 609.14 221.036 609.14H209.216V626H204.296ZM209.216 605H220.436C226.996 605 230.276 602.14 230.276 596.42C230.276 590.66 226.996 587.78 220.436 587.78H209.216V605ZM242.265 626V583.7H268.965V587.84H247.065V602.48H267.705V606.62H247.065V621.86H268.965V626H242.265ZM286.864 626V587.96H271.504V583.7H307.204V587.96H291.844V626H286.864ZM312.577 626V583.7H339.277V587.84H317.377V602.48H338.017V606.62H317.377V621.86H339.277V626H312.577ZM347.558 626V583.7H364.298C368.858 583.7 372.338 584.76 374.738 586.88C377.178 589 378.398 592.02 378.398 595.94C378.398 599.06 377.538 601.62 375.818 603.62C374.138 605.62 371.738 606.92 368.618 607.52C370.458 608.16 372.038 609.72 373.358 612.2L380.798 626H375.398L368.078 612.44C367.158 610.76 366.098 609.62 364.898 609.02C363.698 608.42 362.118 608.12 360.158 608.12H352.478V626H347.558ZM352.478 604.22H363.578C370.218 604.22 373.538 601.46 373.538 595.94C373.538 590.5 370.218 587.78 363.578 587.78H352.478V604.22ZM401.375 626.54C398.055 626.54 395.055 626.12 392.375 625.28C389.695 624.4 387.375 623.14 385.415 621.5L387.155 617.54C389.195 619.1 391.335 620.26 393.575 621.02C395.815 621.78 398.415 622.16 401.375 622.16C404.975 622.16 407.635 621.5 409.355 620.18C411.115 618.82 411.995 617.04 411.995 614.84C411.995 613.08 411.355 611.68 410.075 610.64C408.835 609.6 406.735 608.78 403.775 608.18L397.535 606.92C393.775 606.12 390.955 604.82 389.075 603.02C387.235 601.18 386.315 598.74 386.315 595.7C386.315 593.18 386.955 590.98 388.235 589.1C389.555 587.22 391.375 585.76 393.695 584.72C396.015 583.68 398.695 583.16 401.735 583.16C404.575 583.16 407.215 583.62 409.655 584.54C412.095 585.42 414.155 586.7 415.835 588.38L414.095 592.22C412.295 590.58 410.395 589.4 408.395 588.68C406.395 587.92 404.155 587.54 401.675 587.54C398.515 587.54 395.995 588.28 394.115 589.76C392.235 591.2 391.295 593.12 391.295 595.52C391.295 597.44 391.875 598.96 393.035 600.08C394.235 601.2 396.175 602.02 398.855 602.54L405.095 603.86C409.135 604.7 412.115 605.98 414.035 607.7C415.995 609.38 416.975 611.68 416.975 614.6C416.975 616.96 416.335 619.04 415.055 620.84C413.815 622.64 412.015 624.04 409.655 625.04C407.335 626.04 404.575 626.54 401.375 626.54ZM424.609 626V583.7H441.529C445.889 583.7 449.249 584.68 451.609 586.64C454.009 588.56 455.209 591.26 455.209 594.74C455.209 597.06 454.609 599.04 453.409 600.68C452.209 602.32 450.549 603.52 448.429 604.28C450.869 604.92 452.769 606.1 454.129 607.82C455.529 609.54 456.229 611.72 456.229 614.36C456.229 618.12 455.009 621 452.569 623C450.129 625 446.689 626 442.249 626H424.609ZM429.409 602.6H440.809C447.169 602.6 450.349 600.12 450.349 595.16C450.349 590.16 447.169 587.66 440.809 587.66H429.409V602.6ZM429.409 622.04H441.769C448.169 622.04 451.369 619.46 451.369 614.3C451.369 609.14 448.169 606.56 441.769 606.56H429.409V622.04ZM481.836 626.54C476.276 626.54 472.056 625.08 469.176 622.16C466.296 619.2 464.856 614.9 464.856 609.26V583.7H469.776V609.02C469.776 617.78 473.796 622.16 481.836 622.16C489.796 622.16 493.776 617.78 493.776 609.02V583.7H498.696V609.26C498.696 614.9 497.256 619.2 494.376 622.16C491.536 625.08 487.356 626.54 481.836 626.54ZM508.808 626V583.7H525.548C530.108 583.7 533.588 584.76 535.988 586.88C538.428 589 539.648 592.02 539.648 595.94C539.648 599.06 538.788 601.62 537.068 603.62C535.388 605.62 532.988 606.92 529.868 607.52C531.708 608.16 533.288 609.72 534.608 612.2L542.048 626H536.648L529.328 612.44C528.408 610.76 527.348 609.62 526.148 609.02C524.948 608.42 523.368 608.12 521.408 608.12H513.728V626H508.808ZM513.728 604.22H524.828C531.468 604.22 534.788 601.46 534.788 595.94C534.788 590.5 531.468 587.78 524.828 587.78H513.728V604.22ZM567.972 626.54C561.172 626.54 555.992 624.62 552.432 620.78C548.872 616.94 547.092 611.64 547.092 604.88C547.092 600.4 547.892 596.54 549.492 593.3C551.092 590.06 553.392 587.56 556.392 585.8C559.392 584.04 563.012 583.16 567.252 583.16C570.252 583.16 573.012 583.62 575.532 584.54C578.052 585.42 580.192 586.72 581.952 588.44L580.032 592.4C578.112 590.72 576.132 589.5 574.092 588.74C572.052 587.98 569.752 587.6 567.192 587.6C562.392 587.6 558.712 589.12 556.152 592.16C553.592 595.16 552.312 599.4 552.312 604.88C552.312 610.48 553.632 614.76 556.272 617.72C558.912 620.68 562.852 622.16 568.092 622.16C571.492 622.16 574.752 621.58 577.872 620.42V607.88H567.132V603.98H582.132V623.54C581.012 624.14 579.652 624.66 578.052 625.1C576.492 625.54 574.832 625.88 573.072 626.12C571.312 626.4 569.612 626.54 567.972 626.54Z" fill="black"/>
<path d="M2205.91 154.305C2205.91 154.305 2219.4 136.361 2211.54 127.559C2211.54 127.559 2199.62 120.337 2181.75 136.982L2151 167.226L2135.82 164.122L2137.45 162.43C2139.25 160.568 2139.2 157.577 2137.34 155.772L2131.89 150.524C2130.04 148.718 2127.06 148.775 2125.26 150.637L2116.21 160.06L2101.2 156.956L2105.42 152.555C2107.22 150.693 2107.16 147.703 2105.3 145.897L2099.85 140.65C2098 138.844 2095.02 138.9 2093.22 140.763L2081.59 152.894L2051.35 146.687C2051.35 146.687 2043.2 147.026 2044.15 154.869L2116.94 201.984L2080.52 238.378L2042.63 237.983C2042.63 237.983 2036.68 240.804 2037.01 244.302L2066.35 262.076C2066.35 262.076 2063.04 271.274 2066.35 274.095C2066.35 274.095 2068.04 276.634 2077.48 274.095L2095.86 304C2095.86 304 2100.86 302.307 2102.27 297.003L2100.86 259.537L2137.9 223.199L2183.83 294.746C2183.83 294.746 2185.91 297.398 2189.95 294.521C2189.95 294.521 2195.07 291.192 2192.54 284.59L2186.86 258.239L2198.44 246.164C2200.24 244.302 2200.18 241.312 2198.33 239.506L2192.87 234.259C2191.02 232.453 2188.04 232.51 2186.24 234.372L2182.53 238.208L2179.44 223.933L2189.05 213.889C2190.85 212.027 2190.79 209.037 2188.94 207.231L2183.49 201.984C2181.63 200.178 2178.65 200.234 2176.86 202.096L2175.11 203.902L2171.8 188.554L2205.91 154.305Z" fill="black"/>
<path d="M697.373 595.223C705.653 595.223 712.364 588.511 712.364 580.232C712.364 571.953 705.653 565.241 697.373 565.241C689.094 565.241 682.382 571.953 682.382 580.232C682.382 588.511 689.094 595.223 697.373 595.223Z" fill="black"/>
<path d="M636 433.252C636 395.436 663.559 364.721 697.486 364.721C731.469 364.721 758.972 395.38 758.972 433.252C758.972 471.068 697.486 557.238 697.486 557.238C697.486 557.238 636 471.068 636 433.252Z" fill="black"/>
<path d="M697.148 471.575C719.465 471.575 737.556 453.484 737.556 431.167C737.556 408.85 719.465 390.758 697.148 390.758C674.831 390.758 656.74 408.85 656.74 431.167C656.74 453.484 674.831 471.575 697.148 471.575Z" fill="white"/>
<path fill-rule="evenodd" clip-rule="evenodd" d="M788.729 563.55L793.463 572.511C795.886 571.159 798.31 569.975 800.789 568.735L808.116 565.016L803.551 555.942L796.112 559.718C793.632 560.958 791.152 562.198 788.729 563.55Z" fill="#1D1D1B"/>
<path fill-rule="evenodd" clip-rule="evenodd" d="M762.579 577.978L767.651 586.77L774.808 582.655C775.992 581.979 777.232 581.303 778.415 580.683L782.022 578.71L777.119 569.806L773.456 571.779C772.216 572.455 770.976 573.075 769.793 573.807L762.579 577.978Z" fill="#1D1D1B"/>
<path fill-rule="evenodd" clip-rule="evenodd" d="M736.992 593.251L742.29 601.873L756.379 593.307L751.195 584.572L736.992 593.251Z" fill="#1D1D1B"/>
<path fill-rule="evenodd" clip-rule="evenodd" d="M870.165 525.735L873.941 535.146C879.013 533.005 884.142 531.088 889.27 529.116L885.664 519.648C880.535 521.62 875.294 523.537 870.165 525.735Z" fill="#1D1D1B"/>
<path fill-rule="evenodd" clip-rule="evenodd" d="M842.663 537.401L846.777 546.643L854.329 543.318L858.048 541.684L861.881 540.106L857.936 530.75L854.103 532.328L850.271 534.019L842.663 537.401Z" fill="#1D1D1B"/>
<path fill-rule="evenodd" clip-rule="evenodd" d="M815.611 549.912L820.007 559.042L834.942 551.997L830.659 542.755L815.611 549.912Z" fill="#1D1D1B"/>
<path fill-rule="evenodd" clip-rule="evenodd" d="M955.04 496.429L957.857 506.179L965.804 503.812L973.75 501.726L971.101 491.92L963.042 494.062L955.04 496.429Z" fill="#1D1D1B"/>
<path fill-rule="evenodd" clip-rule="evenodd" d="M926.466 505.22L929.622 514.858L937.456 512.322L941.401 511.082C942.697 510.687 943.993 510.236 945.346 509.842L942.359 500.148C941.007 500.543 939.71 500.994 938.358 501.388L934.413 502.684L926.466 505.22Z" fill="#1D1D1B"/>
<path fill-rule="evenodd" clip-rule="evenodd" d="M898.288 514.858L901.782 524.382L917.28 518.972L914.011 509.334L898.288 514.858Z" fill="#1D1D1B"/>
<path fill-rule="evenodd" clip-rule="evenodd" d="M1042.51 475.971L1044.31 485.946C1049.72 484.988 1055.13 483.917 1060.54 483.185L1058.96 473.153C1053.44 473.942 1047.97 475.013 1042.51 475.971Z" fill="#1D1D1B"/>
<path fill-rule="evenodd" clip-rule="evenodd" d="M1013.14 481.719L1015.29 491.638L1031.4 488.313L1029.49 478.338L1013.14 481.719Z" fill="#1D1D1B"/>
<path fill-rule="evenodd" clip-rule="evenodd" d="M984.12 488.482L986.6 498.345C987.896 498.007 989.248 497.668 990.601 497.33L994.602 496.372L1002.61 494.456L1000.29 484.594L992.179 486.51L988.121 487.468C986.825 487.806 985.472 488.144 984.12 488.482Z" fill="#1D1D1B"/>
<path fill-rule="evenodd" clip-rule="evenodd" d="M1132.23 467.292L1131.49 477.436C1132.79 477.549 1134.14 477.605 1135.44 477.774L1139.38 478.225L1143.27 478.789C1144.57 478.958 1145.87 479.24 1147.16 479.465L1149.13 469.49C1147.73 469.264 1146.32 468.926 1144.91 468.701L1140.68 468.081L1136.45 467.574C1135.05 467.517 1133.64 467.405 1132.23 467.292Z" fill="#1D1D1B"/>
<path fill-rule="evenodd" clip-rule="evenodd" d="M1101.91 467.574L1102.7 477.662C1108.11 477.211 1113.46 476.985 1118.81 476.985L1118.76 466.841C1113.12 466.897 1107.54 467.123 1101.91 467.574Z" fill="#1D1D1B"/>
<path fill-rule="evenodd" clip-rule="evenodd" d="M1072.21 471.124L1073.67 481.156L1077.73 480.536L1081.79 479.972C1084.49 479.634 1087.2 479.24 1089.9 478.958L1088.72 468.87C1085.96 469.208 1083.2 469.546 1080.43 469.884L1076.32 470.448L1072.21 471.124Z" fill="#1D1D1B"/>
<path fill-rule="evenodd" clip-rule="evenodd" d="M1210.79 509.842L1202.05 514.97C1202.39 515.534 1202.73 516.041 1203.01 516.548L1203.86 518.239L1204.7 519.873C1204.87 520.155 1204.98 520.437 1205.1 520.719L1205.44 521.564L1206.11 523.255L1206.45 524.1C1206.56 524.382 1206.62 524.664 1206.73 525.002L1207.3 526.749L1207.58 527.651C1207.69 527.932 1207.75 528.271 1207.8 528.552L1217.61 525.96C1217.5 525.622 1217.44 525.227 1217.33 524.889L1216.99 523.818L1216.31 521.733C1216.2 521.395 1216.09 521.057 1215.97 520.662L1215.58 519.648L1214.73 517.619L1214.34 516.605C1214.23 516.266 1214.06 515.928 1213.89 515.59L1212.93 513.618L1211.97 511.645C1211.58 511.082 1211.18 510.462 1210.79 509.842Z" fill="#1D1D1B"/>
<path fill-rule="evenodd" clip-rule="evenodd" d="M1189.82 486.961L1183.79 495.132C1184.81 495.921 1185.88 496.654 1186.84 497.443L1188.3 498.683C1188.81 499.077 1189.32 499.472 1189.71 499.923L1192.47 502.515L1195.07 505.277L1202.67 498.57L1199.69 495.358L1196.53 492.371C1196.02 491.864 1195.46 491.413 1194.9 490.962L1193.21 489.553C1192.14 488.651 1190.95 487.862 1189.82 486.961Z" fill="#1D1D1B"/>
<path fill-rule="evenodd" clip-rule="evenodd" d="M1162.49 473.04L1159.34 482.677C1164.24 484.312 1169.03 486.284 1173.59 488.708L1178.38 479.747C1173.26 477.042 1167.96 474.787 1162.49 473.04Z" fill="#1D1D1B"/>
<path fill-rule="evenodd" clip-rule="evenodd" d="M1196.93 596.294L1189.37 589.531C1185.94 593.42 1182.16 596.97 1178.1 600.295L1184.53 608.129C1188.92 604.522 1193.09 600.577 1196.93 596.294Z" fill="#1D1D1B"/>
<path fill-rule="evenodd" clip-rule="evenodd" d="M1213.61 570.426L1204.25 566.425C1202.28 571.102 1199.74 575.611 1196.87 579.838L1205.27 585.53C1208.54 580.796 1211.35 575.724 1213.61 570.426Z" fill="#1D1D1B"/>
<path fill-rule="evenodd" clip-rule="evenodd" d="M1219.64 539.993L1209.49 540.331C1209.66 545.234 1209.16 550.25 1208.03 555.097L1217.89 557.351C1219.19 551.715 1219.81 545.854 1219.64 539.993Z" fill="#1D1D1B"/>
<path fill-rule="evenodd" clip-rule="evenodd" d="M1114.76 632.363L1114.98 622.218C1112.39 622.162 1109.85 621.993 1107.32 621.655C1104.78 621.373 1102.25 620.922 1099.82 620.359L1097.57 630.278C1100.39 630.954 1103.26 631.405 1106.13 631.743C1109.01 632.081 1111.88 632.306 1114.76 632.363Z" fill="#1D1D1B"/>
<path fill-rule="evenodd" clip-rule="evenodd" d="M1145.25 628.531L1142.6 618.724C1140.06 619.401 1137.52 620.021 1134.99 620.471C1132.45 620.979 1129.86 621.317 1127.27 621.655L1128.39 631.743C1131.21 631.405 1134.09 631.01 1136.91 630.447C1139.67 629.883 1142.48 629.263 1145.25 628.531Z" fill="#1D1D1B"/>
<path fill-rule="evenodd" clip-rule="evenodd" d="M1173.26 616.188L1167.85 607.565C1163.45 610.327 1158.83 612.75 1154.09 614.723L1158.04 624.078C1163.34 621.88 1168.41 619.231 1173.26 616.188Z" fill="#1D1D1B"/>
<path fill-rule="evenodd" clip-rule="evenodd" d="M1046.51 578.654L1056.43 576.4C1055.3 571.497 1054.74 566.368 1054.68 561.296L1044.54 561.409C1044.59 567.214 1045.21 572.962 1046.51 578.654Z" fill="#1D1D1B"/>
<path fill-rule="evenodd" clip-rule="evenodd" d="M1059.58 606.833L1067.59 600.634C1064.54 596.745 1062.06 592.405 1060.09 587.784L1050.73 591.785C1053.1 597.139 1056.03 602.212 1059.58 606.833Z" fill="#1D1D1B"/>
<path fill-rule="evenodd" clip-rule="evenodd" d="M1084.21 625.938L1088.27 616.639C1086.01 615.625 1083.82 614.497 1081.67 613.201C1080.6 612.581 1079.59 611.849 1078.57 611.172C1077.56 610.44 1076.6 609.707 1075.64 608.918L1069.22 616.752C1070.35 617.71 1071.53 618.555 1072.71 619.457C1073.95 620.302 1075.14 621.091 1076.38 621.88C1078.91 623.402 1081.56 624.755 1084.21 625.938Z" fill="#1D1D1B"/>
<path fill-rule="evenodd" clip-rule="evenodd" d="M1072.32 493.047L1080.04 499.641C1083.48 495.64 1087.14 491.807 1091.03 488.2L1084.1 480.818C1079.93 484.65 1076.04 488.764 1072.32 493.047Z" fill="#1D1D1B"/>
<path fill-rule="evenodd" clip-rule="evenodd" d="M1055.19 518.352L1064.2 522.973C1066.57 518.352 1069.28 513.843 1072.32 509.56L1064.03 503.755C1060.77 508.376 1057.78 513.223 1055.19 518.352Z" fill="#1D1D1B"/>
<path fill-rule="evenodd" clip-rule="evenodd" d="M1045.55 547.489L1055.58 549.066C1056.37 544.051 1057.67 539.035 1059.41 534.188L1049.83 530.807C1047.92 536.217 1046.45 541.796 1045.55 547.489Z" fill="#1D1D1B"/>
<path fill-rule="evenodd" clip-rule="evenodd" d="M1146.71 441.818L1150.43 451.23L1152.29 450.497L1154.21 449.821L1157.98 448.412C1159.22 447.905 1160.52 447.51 1161.82 447.116L1165.65 445.82L1162.6 436.126L1158.6 437.422C1157.25 437.873 1155.95 438.268 1154.6 438.775L1150.66 440.24L1148.68 440.973L1146.71 441.818Z" fill="#1D1D1B"/>
<path fill-rule="evenodd" clip-rule="evenodd" d="M1119.38 454.837L1124.39 463.629C1125.52 462.952 1126.7 462.332 1127.89 461.713L1131.44 459.796C1133.81 458.556 1136.23 457.429 1138.65 456.246L1134.37 447.06C1131.83 448.299 1129.3 449.483 1126.82 450.779L1123.1 452.752C1121.86 453.484 1120.62 454.104 1119.38 454.837Z" fill="#1D1D1B"/>
<path fill-rule="evenodd" clip-rule="evenodd" d="M1094.41 471.857L1100.78 479.747L1101.57 479.127L1102.36 478.507L1103.94 477.324L1107.09 474.9C1109.29 473.378 1111.43 471.857 1113.69 470.335L1108.05 461.882C1105.74 463.46 1103.43 465.094 1101.12 466.728L1097.74 469.321L1096.05 470.617L1095.2 471.237L1094.41 471.857Z" fill="#1D1D1B"/>
<path fill-rule="evenodd" clip-rule="evenodd" d="M1234.85 422.6L1235.7 432.688C1238.4 432.463 1241.11 432.238 1243.87 432.068C1246.58 431.899 1249.34 431.73 1252.04 431.618L1251.59 421.473C1248.83 421.586 1246.01 421.755 1243.25 421.924C1240.43 422.15 1237.62 422.431 1234.85 422.6Z" fill="#1D1D1B"/>
<path fill-rule="evenodd" clip-rule="evenodd" d="M1204.98 426.264L1206.62 436.295L1210.62 435.675L1214.68 435.112C1216.03 434.943 1217.38 434.717 1218.74 434.548L1222.79 434.097L1221.61 424.009L1217.44 424.517C1216.03 424.686 1214.68 424.911 1213.27 425.08L1209.1 425.644L1204.98 426.264Z" fill="#1D1D1B"/>
<path fill-rule="evenodd" clip-rule="evenodd" d="M1175.62 432.407L1178.21 442.213C1183.46 440.804 1188.7 439.62 1194.05 438.55L1192.02 428.631C1186.5 429.758 1181.03 430.941 1175.62 432.407Z" fill="#1D1D1B"/>
<path fill-rule="evenodd" clip-rule="evenodd" d="M1324.74 422.713L1324.07 432.857L1328.18 433.139L1332.3 433.477C1335.06 433.703 1337.76 433.872 1340.52 434.154L1341.43 424.066C1338.66 423.784 1335.9 423.615 1333.09 423.389L1328.91 423.051L1324.74 422.713Z" fill="#1D1D1B"/>
<path fill-rule="evenodd" clip-rule="evenodd" d="M1294.87 421.248L1294.59 431.392C1297.35 431.448 1300.06 431.561 1302.82 431.674L1311.05 432.068L1311.56 421.924L1303.22 421.53C1300.45 421.417 1297.69 421.304 1294.87 421.248Z" fill="#1D1D1B"/>
<path fill-rule="evenodd" clip-rule="evenodd" d="M1265.01 421.079L1265.23 431.223C1267.99 431.167 1270.7 431.11 1273.46 431.11C1276.22 431.11 1278.93 431.11 1281.69 431.11L1281.8 420.966C1279.04 420.91 1276.22 420.966 1273.46 420.966C1270.58 421.022 1267.82 421.079 1265.01 421.079Z" fill="#1D1D1B"/>
<path fill-rule="evenodd" clip-rule="evenodd" d="M1413.9 434.266L1411.82 444.185L1419.82 445.932C1422.47 446.552 1425.12 447.172 1427.77 447.792L1430.19 437.93C1427.48 437.31 1424.78 436.633 1422.02 436.013L1413.9 434.266Z" fill="#1D1D1B"/>
<path fill-rule="evenodd" clip-rule="evenodd" d="M1384.43 429.025L1382.91 439.057C1388.32 439.902 1393.73 440.747 1399.08 441.762L1400.88 431.787C1395.42 430.772 1389.89 429.871 1384.43 429.025Z" fill="#1D1D1B"/>
<path fill-rule="evenodd" clip-rule="evenodd" d="M1354.78 425.249L1353.71 435.337C1356.42 435.619 1359.18 435.957 1361.88 436.239C1364.59 436.521 1367.35 436.915 1370.06 437.253L1371.35 427.222C1368.59 426.884 1365.83 426.489 1363.07 426.207C1360.31 425.869 1357.54 425.531 1354.78 425.249Z" fill="#1D1D1B"/>
<path fill-rule="evenodd" clip-rule="evenodd" d="M1499.68 461.938L1495.39 471.124C1496.63 471.688 1497.87 472.251 1499.06 472.871L1502.66 474.675L1506.27 476.478C1507.46 477.098 1508.64 477.774 1509.82 478.394L1514.67 469.49C1513.43 468.813 1512.19 468.137 1510.95 467.461L1507.17 465.545L1503.4 463.629C1502.21 463.121 1500.92 462.501 1499.68 461.938Z" fill="#1D1D1B"/>
<path fill-rule="evenodd" clip-rule="evenodd" d="M1471.84 450.441L1468.4 459.965C1473.53 461.769 1478.54 463.798 1483.56 465.883L1487.45 456.528C1482.32 454.386 1477.13 452.301 1471.84 450.441Z" fill="#1D1D1B"/>
<path fill-rule="evenodd" clip-rule="evenodd" d="M1443.32 441.367L1440.62 451.117C1443.21 451.85 1445.86 452.583 1448.45 453.372L1456.23 455.795L1459.33 446.158L1451.32 443.678C1448.67 442.889 1445.97 442.156 1443.32 441.367Z" fill="#1D1D1B"/>
<path fill-rule="evenodd" clip-rule="evenodd" d="M1573.51 513.843L1566.18 520.831L1568.94 523.762C1569.84 524.72 1570.69 525.791 1571.59 526.749C1573.34 528.778 1575.14 530.75 1576.77 532.892L1584.66 526.523C1582.97 524.269 1581.06 522.24 1579.2 520.099C1578.24 519.028 1577.39 517.957 1576.38 516.943L1573.51 513.843Z" fill="#1D1D1B"/>
<path fill-rule="evenodd" clip-rule="evenodd" d="M1551.19 493.442L1544.88 501.388L1547.98 503.924L1549.55 505.22C1550.06 505.615 1550.62 506.066 1551.08 506.517L1557.11 511.871L1563.98 504.431L1557.67 498.852C1557.16 498.401 1556.6 497.95 1556.04 497.499L1554.4 496.147L1551.19 493.442Z" fill="#1D1D1B"/>
<path fill-rule="evenodd" clip-rule="evenodd" d="M1526.45 476.253L1521.15 484.932C1523.46 486.341 1525.72 487.806 1527.97 489.271C1529.1 490.004 1530.22 490.737 1531.35 491.526L1534.68 493.836L1540.54 485.552L1537.1 483.128C1535.97 482.339 1534.79 481.494 1533.61 480.761C1531.18 479.24 1528.87 477.718 1526.45 476.253Z" fill="#1D1D1B"/>
<path fill-rule="evenodd" clip-rule="evenodd" d="M1608.05 596.069L1598.3 593.363C1597.68 595.618 1596.84 597.872 1595.77 600.014C1594.7 602.155 1593.51 604.184 1592.1 606.044L1600.22 612.13C1602.02 609.707 1603.6 607.171 1604.9 604.466C1606.19 601.761 1607.26 598.943 1608.05 596.069Z" fill="#1D1D1B"/>
<path fill-rule="evenodd" clip-rule="evenodd" d="M1606.87 564.677L1597.18 567.664C1597.97 570.031 1598.47 572.455 1598.92 574.878C1599.04 575.498 1599.09 576.118 1599.21 576.682C1599.26 577.302 1599.43 577.921 1599.43 578.485C1599.49 579.725 1599.66 580.908 1599.66 582.148L1609.8 581.923C1609.8 580.458 1609.63 578.992 1609.52 577.527C1609.46 576.794 1609.35 576.062 1609.24 575.329C1609.12 574.596 1609.07 573.864 1608.9 573.131C1608.39 570.313 1607.77 567.439 1606.87 564.677Z" fill="#1D1D1B"/>
<path fill-rule="evenodd" clip-rule="evenodd" d="M1592.95 537.344L1584.61 543.149C1587.6 547.489 1590.36 551.941 1592.67 556.562L1601.74 552.054C1599.15 546.925 1596.22 542.022 1592.95 537.344Z" fill="#1D1D1B"/>
<path fill-rule="evenodd" clip-rule="evenodd" d="M1535.3 602.212L1544.48 597.928C1543.47 595.787 1542.62 593.533 1542 591.166C1541.38 588.799 1540.88 586.432 1540.59 583.952L1530.51 585.192C1530.84 588.122 1531.41 590.997 1532.2 593.871C1532.99 596.689 1534.06 599.506 1535.3 602.212Z" fill="#1D1D1B"/>
<path fill-rule="evenodd" clip-rule="evenodd" d="M1557.84 624.473L1561.84 615.117C1559.75 614.216 1557.73 613.089 1555.87 611.736C1554.01 610.383 1552.2 608.862 1550.62 607.115L1543.19 613.99C1545.21 616.188 1547.53 618.161 1549.95 619.964C1552.37 621.768 1555.08 623.233 1557.84 624.473Z" fill="#1D1D1B"/>
<path fill-rule="evenodd" clip-rule="evenodd" d="M1589.57 622.106L1584.1 613.539C1580.38 615.906 1576.15 617.259 1571.87 617.259L1571.98 627.403C1578.24 627.347 1584.44 625.374 1589.57 622.106Z" fill="#1D1D1B"/>
<path fill-rule="evenodd" clip-rule="evenodd" d="M1551.81 514.407L1560.09 520.324C1563.14 516.041 1566.46 511.927 1570.01 508.038L1562.52 501.219C1558.68 505.333 1555.13 509.785 1551.81 514.407Z" fill="#1D1D1B"/>
<path fill-rule="evenodd" clip-rule="evenodd" d="M1537.21 541.289L1546.68 544.952C1548.54 540.106 1550.79 535.372 1553.39 530.807L1544.54 525.791C1541.72 530.807 1539.24 535.935 1537.21 541.289Z" fill="#1D1D1B"/>
<path fill-rule="evenodd" clip-rule="evenodd" d="M1530.28 571.159L1540.42 571.835C1540.48 570.595 1540.65 569.299 1540.76 568.003C1540.93 566.706 1541.1 565.467 1541.33 564.17C1541.49 562.874 1541.78 561.634 1542.06 560.394L1542.96 556.618L1533.15 554.139L1532.2 558.309C1531.91 559.718 1531.63 561.127 1531.41 562.536C1531.13 563.945 1530.96 565.354 1530.79 566.819C1530.51 568.284 1530.34 569.693 1530.28 571.159Z" fill="#1D1D1B"/>
<path fill-rule="evenodd" clip-rule="evenodd" d="M1622.59 458.331L1626.82 467.517C1629.24 466.39 1631.72 465.319 1634.2 464.305L1637.92 462.783L1641.7 461.374L1638.15 451.85L1634.2 453.315L1630.31 454.893C1627.78 456.02 1625.19 457.147 1622.59 458.331Z" fill="#1D1D1B"/>
<path fill-rule="evenodd" clip-rule="evenodd" d="M1596.11 472.928L1601.63 481.438C1606.08 478.507 1610.7 475.802 1615.44 473.266L1610.65 464.361C1605.69 467.01 1600.84 469.884 1596.11 472.928Z" fill="#1D1D1B"/>
<path fill-rule="evenodd" clip-rule="evenodd" d="M1572.21 491.469L1579.09 498.908C1582.97 495.302 1587.09 491.92 1591.32 488.651L1585.17 480.536C1580.72 484.03 1576.32 487.637 1572.21 491.469Z" fill="#1D1D1B"/>
<path fill-rule="evenodd" clip-rule="evenodd" d="M1709.16 433.252L1711.07 443.227C1716.48 442.213 1721.9 441.198 1727.36 440.24L1725.56 430.265C1720.09 431.223 1714.63 432.237 1709.16 433.252Z" fill="#1D1D1B"/>
<path fill-rule="evenodd" clip-rule="evenodd" d="M1679.91 439.451L1682.22 449.314L1690.22 447.454L1698.23 445.763L1696.2 435.844L1688.02 437.591L1679.91 439.451Z" fill="#1D1D1B"/>
<path fill-rule="evenodd" clip-rule="evenodd" d="M1651 447.398L1654.1 457.035C1659.28 455.4 1664.47 453.822 1669.71 452.414L1667.06 442.607C1661.71 444.129 1656.35 445.707 1651 447.398Z" fill="#1D1D1B"/>
<path fill-rule="evenodd" clip-rule="evenodd" d="M1796.79 416.176L1799.22 426.038L1801.25 425.531L1803.28 424.967L1807.33 423.897L1815.45 421.699L1812.74 411.949L1804.8 414.09L1800.8 415.161L1798.82 415.668L1796.79 416.176Z" fill="#1D1D1B"/>
<path fill-rule="evenodd" clip-rule="evenodd" d="M1767.88 422.544L1769.86 432.519C1772.62 432.012 1775.32 431.392 1778.08 430.829L1782.2 429.983L1786.31 429.025L1784.11 419.106L1780.11 420.064L1776.05 420.91C1773.29 421.473 1770.59 422.037 1767.88 422.544Z" fill="#1D1D1B"/>
<path fill-rule="evenodd" clip-rule="evenodd" d="M1738.75 427.954L1740.49 437.93C1745.96 436.972 1751.43 436.013 1756.89 434.999L1755.03 425.024C1749.62 425.982 1744.21 426.996 1738.75 427.954Z" fill="#1D1D1B"/>
<path fill-rule="evenodd" clip-rule="evenodd" d="M1881.16 388.279L1885.05 397.634L1892.83 394.422C1895.42 393.294 1897.96 392.111 1900.49 390.984L1896.32 381.741C1893.79 382.868 1891.31 384.052 1888.77 385.123L1881.16 388.279Z" fill="#1D1D1B"/>
<path fill-rule="evenodd" clip-rule="evenodd" d="M1853.55 399.043L1856.98 408.567L1872.71 402.65L1868.99 393.238L1853.55 399.043Z" fill="#1D1D1B"/>
<path fill-rule="evenodd" clip-rule="evenodd" d="M1825.54 408.229L1828.47 417.923L1836.53 415.499L1838.56 414.879C1839.23 414.654 1839.91 414.429 1840.53 414.203L1844.53 412.851L1841.32 403.214L1837.43 404.566C1836.75 404.791 1836.13 405.017 1835.46 405.242L1833.48 405.862L1825.54 408.229Z" fill="#1D1D1B"/>
<path fill-rule="evenodd" clip-rule="evenodd" d="M1960.4 348.152L1965.64 356.831L1979.9 347.983L1974.43 339.473L1960.4 348.152Z" fill="#1D1D1B"/>
<path fill-rule="evenodd" clip-rule="evenodd" d="M1934.7 362.805L1939.49 371.71C1941.97 370.357 1944.45 369.117 1946.87 367.708L1954.14 363.538L1949.07 354.746L1941.91 358.86C1939.55 360.269 1937.12 361.509 1934.7 362.805Z" fill="#1D1D1B"/>
<path fill-rule="evenodd" clip-rule="evenodd" d="M1908.38 376.218L1912.78 385.348L1927.83 377.965L1923.2 368.892L1908.38 376.218Z" fill="#1D1D1B"/>
<path fill-rule="evenodd" clip-rule="evenodd" d="M2032.76 296.585L2039.24 304.363L2042.46 301.714L2045.67 298.952L2051.98 293.429L2045.22 285.821L2039.02 291.231L2035.92 293.993L2032.76 296.585Z" fill="#1D1D1B"/>
<path fill-rule="evenodd" clip-rule="evenodd" d="M2009.54 314.958L2015.63 323.073L2022.28 318.001L2025.61 315.409L2027.3 314.169L2028.93 312.816L2022.62 304.87L2020.98 306.166L2019.35 307.462L2016.08 309.942L2009.54 314.958Z" fill="#1D1D1B"/>
<path fill-rule="evenodd" clip-rule="evenodd" d="M1985.48 332.09L1991.17 340.488C1995.85 337.444 2000.36 334.119 2004.92 330.907L1999 322.679C1994.55 325.835 1990.16 329.103 1985.48 332.09Z" fill="#1D1D1B"/>
</svg>
